<?xml version="1.0" encoding="UTF-8"?>
<svg version="1.1" xmlns="http://www.w3.org/2000/svg" width="213" height="157">
<path d="M0 0 C9 0 9 0 11.0234375 1.5546875 C11.46945313 2.32039063 11.91546875 3.08609375 12.375 3.875 C12.92027344 4.76703125 13.46554688 5.6590625 14.02734375 6.578125 C14.67832031 7.70734375 15.32929688 8.8365625 16 10 C16.95514099 11.56005229 17.9151513 13.11712941 18.87890625 14.671875 C21.61654106 19.09636181 24.31765593 23.54181445 27 28 C28.18577118 26.17095331 29.37121928 24.34169648 30.55517578 22.51147461 C31.56386145 20.956295 32.57659358 19.40373277 33.59326172 17.85375977 C35.8309813 14.42924068 38.0359267 11.02712356 39.97265625 7.421875 C40.51792969 6.43703125 41.06320313 5.4521875 41.625 4.4375 C42.29402344 3.13619141 42.29402344 3.13619141 42.9765625 1.80859375 C45 0 45 0 54 0 C54 18.81 54 37.62 54 57 C50.7 57 47.4 57 44 57 C44 44.79 44 32.58 44 20 C39.68036184 26.89415774 39.68036184 26.89415774 35.41577148 33.82226562 C30.99276762 40.66728287 30.99276762 40.66728287 26.3984375 42.20703125 C21.23330909 40.37252013 19.71547075 36.86192829 17.1875 32.1875 C16.71119141 31.35412109 16.23488281 30.52074219 15.74414062 29.66210938 C14.85922253 28.11256925 13.98518657 26.5567272 13.12573242 24.99291992 C12.16001316 23.28327638 11.08917679 21.63376518 10 20 C10 32.21 10 44.42 10 57 C6.7 57 3.4 57 0 57 C0 38.19 0 19.38 0 0 Z " fill="#000000" transform="translate(130,19)"/>
<path d="M0 0 C3.3 0 6.6 0 10 0 C10 12.21 10 24.42 10 37 C13.11446008 31.96182624 13.11446008 31.96182624 16.22167969 26.91918945 C17.45783624 24.93042579 18.72599218 22.96468056 20 21 C20.62390625 20.00355469 21.2478125 19.00710937 21.890625 17.98046875 C24 16 24 16 27.31640625 15.03125 C32.34124127 16.35273365 33.48210773 18.84745513 36.07397461 23.17773438 C36.68893799 24.27408203 37.30390137 25.37042969 37.9375 26.5 C39.938125 29.965 41.93875 33.43 44 37 C44 24.79 44 12.58 44 0 C47.3 0 50.6 0 54 0 C54 18.48 54 36.96 54 56 C44 56 44 56 41.39599609 53.64501953 C40.77805176 52.56849121 40.16010742 51.49196289 39.5234375 50.3828125 C39.18245026 49.81045868 38.84146301 49.23810486 38.49014282 48.64840698 C37.41594062 46.82551181 36.39660744 44.97777839 35.375 43.125 C34.65303615 41.88739395 33.92780372 40.65168852 33.19921875 39.41796875 C28 30.50010549 28 30.50010549 28 28 C27.34 28 26.68 28 26 28 C25.72599365 28.73210693 25.4519873 29.46421387 25.16967773 30.21850586 C24.0630806 32.8499943 22.81388264 35.09901894 21.28515625 37.50390625 C20.76373047 38.32697266 20.24230469 39.15003906 19.70507812 39.99804688 C18.89200195 41.26745117 18.89200195 41.26745117 18.0625 42.5625 C17.52431641 43.41263672 16.98613281 44.26277344 16.43164062 45.13867188 C14.96966755 47.43708825 13.50937343 49.73241268 12 52 C11.63189209 52.75015381 11.26378418 53.50030762 10.88452148 54.27319336 C9 56 9 56 0 56 C0 37.52 0 19.04 0 0 Z " fill="#000000" transform="translate(130,78)"/>
<path d="M0 0 C33.88599047 0 33.88599047 0 42.30859375 8.03125 C48.55496546 15.30185356 49.35852928 23.08997938 49.28125 32.3828125 C48.67769741 40.14516948 45.61131714 46.64374273 40 52 C27.15184494 59.97560125 16.83529753 57 0 57 C0 38.19 0 19.38 0 0 Z M10 9 C10 21.87 10 34.74 10 48 C22.51459112 48.66776572 22.51459112 48.66776572 33 45 C37.85038704 40.14961296 39.28862085 35.32029843 39.3125 28.5625 C39.19301281 21.93842906 37.92941446 18.42554961 33.8125 13.25 C26.68689255 7.54951404 18.98847272 9 10 9 Z " fill="#000000" transform="translate(19,49)"/>
<path d="M0 0 C1.37478516 0.01740234 1.37478516 0.01740234 2.77734375 0.03515625 C3.69644531 0.04417969 4.61554688 0.05320313 5.5625 0.0625 C6.27277344 0.07410156 6.98304687 0.08570313 7.71484375 0.09765625 C10.45681649 7.23272611 13.19521503 14.3691587 15.92902374 21.50736046 C17.19847629 24.82166838 18.46916764 28.13549027 19.74267578 31.44824219 C21.20582238 35.25445789 22.66360429 39.06270818 24.12109375 42.87109375 C24.8101178 44.66019669 24.8101178 44.66019669 25.51306152 46.48544312 C25.93349731 47.58643341 26.35393311 48.68742371 26.78710938 49.82177734 C27.34670349 51.28071915 27.34670349 51.28071915 27.91760254 52.76913452 C28.71484375 55.09765625 28.71484375 55.09765625 28.71484375 57.09765625 C25.41484375 57.09765625 22.11484375 57.09765625 18.71484375 57.09765625 C17.87720107 55.14116228 17.04485316 53.18240069 16.21484375 51.22265625 C15.75078125 50.13210937 15.28671875 49.0415625 14.80859375 47.91796875 C13.71484375 45.09765625 13.71484375 45.09765625 13.71484375 43.09765625 C6.12484375 43.09765625 -1.46515625 43.09765625 -9.28515625 43.09765625 C-10.27515625 46.39765625 -11.26515625 49.69765625 -12.28515625 53.09765625 C-12.94515625 54.41765625 -13.60515625 55.73765625 -14.28515625 57.09765625 C-17.58515625 57.09765625 -20.88515625 57.09765625 -24.28515625 57.09765625 C-20.22991148 45.38314065 -15.94031295 33.77321293 -11.47875977 22.20751953 C-10.45275661 19.54603599 -9.43227515 16.88247579 -8.41210938 14.21875 C-7.75943829 12.52201086 -7.10645593 10.82539142 -6.453125 9.12890625 C-5.99694038 7.93702698 -5.99694038 7.93702698 -5.53153992 6.72106934 C-2.98013074 0.12735601 -2.98013074 0.12735601 0 0 Z M1.71484375 12.09765625 C0.54312619 15.38754711 -0.62166713 18.67984727 -1.78515625 21.97265625 C-2.11902344 22.90980469 -2.45289063 23.84695312 -2.796875 24.8125 C-3.27060547 26.15634766 -3.27060547 26.15634766 -3.75390625 27.52734375 C-4.04716797 28.35476074 -4.34042969 29.18217773 -4.64257812 30.03466797 C-5.38428526 32.0557841 -5.38428526 32.0557841 -5.28515625 34.09765625 C-0.33515625 34.09765625 4.61484375 34.09765625 9.71484375 34.09765625 C7.54105215 26.70676481 5.18480999 19.39471388 2.71484375 12.09765625 C2.38484375 12.09765625 2.05484375 12.09765625 1.71484375 12.09765625 Z " fill="#000000" transform="translate(95.28515625,48.90234375)"/>
</svg>
